<mxfile host="app.diagrams.net" agent="Mozilla/5.0 (Windows NT 10.0; Win64; x64) AppleWebKit/537.36 (KHTML, like Gecko) Chrome/129.0.0.0 Safari/537.36" version="24.7.17">
  <diagram name="Page-1" id="qtm7HpKJ350OHCz0ZduP">
    <mxGraphModel dx="1962" dy="1096" grid="1" gridSize="10" guides="1" tooltips="1" connect="1" arrows="1" fold="1" page="1" pageScale="1" pageWidth="827" pageHeight="1169" math="0" shadow="0">
      <root>
        <mxCell id="0" />
        <mxCell id="1" parent="0" />
        <mxCell id="HK7jvbx3bTWE_E2LBYQ8-5" value="" style="rounded=0;whiteSpace=wrap;html=1;" vertex="1" parent="1">
          <mxGeometry x="350" y="220" width="280" height="540" as="geometry" />
        </mxCell>
        <mxCell id="HK7jvbx3bTWE_E2LBYQ8-6" value="Application de visualisation de répos GitHub avec commentaires" style="text;html=1;align=center;verticalAlign=middle;whiteSpace=wrap;rounded=0;" vertex="1" parent="1">
          <mxGeometry x="360" y="230" width="250" height="30" as="geometry" />
        </mxCell>
        <mxCell id="HK7jvbx3bTWE_E2LBYQ8-7" value="Propriétaire" style="shape=umlActor;verticalLabelPosition=bottom;verticalAlign=top;html=1;" vertex="1" parent="1">
          <mxGeometry x="240" y="280" width="30" height="60" as="geometry" />
        </mxCell>
        <mxCell id="HK7jvbx3bTWE_E2LBYQ8-8" value="Visiteur" style="shape=umlActor;verticalLabelPosition=bottom;verticalAlign=top;html=1;" vertex="1" parent="1">
          <mxGeometry x="240" y="490" width="30" height="60" as="geometry" />
        </mxCell>
        <mxCell id="HK7jvbx3bTWE_E2LBYQ8-10" value="" style="endArrow=classic;html=1;rounded=0;" edge="1" parent="1">
          <mxGeometry width="50" height="50" relative="1" as="geometry">
            <mxPoint x="256" y="371" as="sourcePoint" />
            <mxPoint x="256" y="471" as="targetPoint" />
          </mxGeometry>
        </mxCell>
        <mxCell id="HK7jvbx3bTWE_E2LBYQ8-12" value="Importer repos" style="ellipse;whiteSpace=wrap;html=1;" vertex="1" parent="1">
          <mxGeometry x="410" y="275" width="140" height="70" as="geometry" />
        </mxCell>
        <mxCell id="HK7jvbx3bTWE_E2LBYQ8-16" value="" style="endArrow=none;html=1;rounded=0;entryX=0;entryY=0.5;entryDx=0;entryDy=0;" edge="1" parent="1" target="HK7jvbx3bTWE_E2LBYQ8-12">
          <mxGeometry width="50" height="50" relative="1" as="geometry">
            <mxPoint x="290" y="310" as="sourcePoint" />
            <mxPoint x="330" y="520" as="targetPoint" />
          </mxGeometry>
        </mxCell>
        <mxCell id="HK7jvbx3bTWE_E2LBYQ8-17" value="Ajouter commentaire" style="ellipse;whiteSpace=wrap;html=1;" vertex="1" parent="1">
          <mxGeometry x="420" y="660" width="140" height="70" as="geometry" />
        </mxCell>
        <mxCell id="HK7jvbx3bTWE_E2LBYQ8-18" value="" style="endArrow=none;html=1;rounded=0;entryX=0;entryY=0.5;entryDx=0;entryDy=0;" edge="1" parent="1" target="HK7jvbx3bTWE_E2LBYQ8-17">
          <mxGeometry width="50" height="50" relative="1" as="geometry">
            <mxPoint x="300" y="535" as="sourcePoint" />
            <mxPoint x="330" y="520" as="targetPoint" />
          </mxGeometry>
        </mxCell>
        <mxCell id="HK7jvbx3bTWE_E2LBYQ8-19" value="Voir liste&amp;nbsp;&lt;span style=&quot;background-color: initial;&quot;&gt;repos&lt;/span&gt;" style="ellipse;whiteSpace=wrap;html=1;" vertex="1" parent="1">
          <mxGeometry x="420" y="470" width="140" height="70" as="geometry" />
        </mxCell>
        <mxCell id="HK7jvbx3bTWE_E2LBYQ8-20" value="Voir détail repo" style="ellipse;whiteSpace=wrap;html=1;" vertex="1" parent="1">
          <mxGeometry x="420" y="560" width="140" height="70" as="geometry" />
        </mxCell>
        <mxCell id="HK7jvbx3bTWE_E2LBYQ8-21" value="" style="endArrow=none;html=1;rounded=0;entryX=0;entryY=0.5;entryDx=0;entryDy=0;" edge="1" parent="1" target="HK7jvbx3bTWE_E2LBYQ8-20">
          <mxGeometry width="50" height="50" relative="1" as="geometry">
            <mxPoint x="300" y="520" as="sourcePoint" />
            <mxPoint x="330" y="520" as="targetPoint" />
          </mxGeometry>
        </mxCell>
        <mxCell id="HK7jvbx3bTWE_E2LBYQ8-22" value="" style="endArrow=none;html=1;rounded=0;entryX=0;entryY=0.5;entryDx=0;entryDy=0;" edge="1" parent="1" target="HK7jvbx3bTWE_E2LBYQ8-19">
          <mxGeometry width="50" height="50" relative="1" as="geometry">
            <mxPoint x="300" y="505" as="sourcePoint" />
            <mxPoint x="425" y="505" as="targetPoint" />
          </mxGeometry>
        </mxCell>
        <mxCell id="HK7jvbx3bTWE_E2LBYQ8-23" value="Liker repo" style="ellipse;whiteSpace=wrap;html=1;" vertex="1" parent="1">
          <mxGeometry x="410" y="360" width="140" height="70" as="geometry" />
        </mxCell>
        <mxCell id="HK7jvbx3bTWE_E2LBYQ8-24" value="" style="endArrow=none;html=1;rounded=0;entryX=0;entryY=0.5;entryDx=0;entryDy=0;" edge="1" parent="1" target="HK7jvbx3bTWE_E2LBYQ8-23">
          <mxGeometry width="50" height="50" relative="1" as="geometry">
            <mxPoint x="290" y="330" as="sourcePoint" />
            <mxPoint x="420" y="320" as="targetPoint" />
          </mxGeometry>
        </mxCell>
      </root>
    </mxGraphModel>
  </diagram>
</mxfile>
